<svg xmlns="http://www.w3.org/2000/svg" xmlns:xlink="http://www.w3.org/1999/xlink" width="277.065" height="82.093" viewBox="0 0 277.065 82.093">
  <defs>
    <linearGradient id="linear-gradient" x1="0.915" y1="6.614" x2="-0.383" y2="5.945" gradientUnits="objectBoundingBox">
      <stop offset="0" stop-color="#00a0ff"/>
      <stop offset="0.007" stop-color="#00a1ff"/>
      <stop offset="0.26" stop-color="#00beff"/>
      <stop offset="0.512" stop-color="#00d2ff"/>
      <stop offset="0.76" stop-color="#00dfff"/>
      <stop offset="1" stop-color="#00e3ff"/>
    </linearGradient>
    <linearGradient id="linear-gradient-2" x1="1.076" y1="17.098" x2="-1.305" y2="17.098" gradientUnits="objectBoundingBox">
      <stop offset="0" stop-color="#ffe000"/>
      <stop offset="0.409" stop-color="#ffbd00"/>
      <stop offset="0.775" stop-color="orange"/>
      <stop offset="1" stop-color="#ff9c00"/>
    </linearGradient>
    <linearGradient id="linear-gradient-3" x1="0.862" y1="10.863" x2="-0.501" y2="9.093" gradientUnits="objectBoundingBox">
      <stop offset="0" stop-color="#ff3a44"/>
      <stop offset="1" stop-color="#c31162"/>
    </linearGradient>
    <linearGradient id="linear-gradient-4" x1="-0.188" y1="13.583" x2="0.421" y2="12.793" gradientUnits="objectBoundingBox">
      <stop offset="0" stop-color="#32a071"/>
      <stop offset="0.068" stop-color="#2da771"/>
      <stop offset="0.476" stop-color="#15cf74"/>
      <stop offset="0.801" stop-color="#06e775"/>
      <stop offset="1" stop-color="#00f076"/>
    </linearGradient>
  </defs>
  <g id="Grupo_12015" data-name="Grupo 12015" transform="translate(-10 -10)">
    <rect id="Retângulo_4424" data-name="Retângulo 4424" width="277" height="81" rx="13" transform="translate(10 10.408)"/>
    <g id="Grupo_12011" data-name="Grupo 12011" transform="translate(10 10)">
      <g id="Grupo_12010" data-name="Grupo 12010">
        <path id="Caminho_14728" data-name="Caminho 14728" d="M276.8,11.642a8.629,8.629,0,0,1,8.62,8.62v61.57a8.629,8.629,0,0,1-8.62,8.62H20.262a8.629,8.629,0,0,1-8.62-8.62V20.262a8.629,8.629,0,0,1,8.62-8.62H276.8m0-1.642H20.262A10.292,10.292,0,0,0,10,20.262v61.57A10.292,10.292,0,0,0,20.262,92.093H276.8a10.292,10.292,0,0,0,10.262-10.262V20.262A10.292,10.292,0,0,0,276.8,10Z" transform="translate(-10 -10)" fill="#a6a6a6"/>
      </g>
    </g>
    <g id="Grupo_12012" data-name="Grupo 12012" transform="translate(94.868 24.091)">
      <path id="Caminho_14729" data-name="Caminho 14729" d="M63.8,23.8a5.559,5.559,0,0,1-1.529,4.111,5.968,5.968,0,0,1-4.523,1.822,6.343,6.343,0,0,1-6.4-6.432,6.343,6.343,0,0,1,6.4-6.432,6.375,6.375,0,0,1,2.528.515A5.066,5.066,0,0,1,62.2,18.758L61.121,19.84a4.165,4.165,0,0,0-3.372-1.459A4.762,4.762,0,0,0,52.967,23.3a4.843,4.843,0,0,0,8.222,3.544,3.883,3.883,0,0,0,1.032-2.5H57.749V22.869h5.968A5.247,5.247,0,0,1,63.8,23.8Z" transform="translate(-51.352 -16.866)" fill="#fff" stroke="#fff" stroke-miterlimit="10" stroke-width="0.2"/>
      <path id="Caminho_14730" data-name="Caminho 14730" d="M65.714,18.513H60.105v3.906h5.057V23.9H60.105V27.8h5.609v1.513H58.525V17h7.189Z" transform="translate(-43.804 -16.725)" fill="#fff" stroke="#fff" stroke-miterlimit="10" stroke-width="0.2"/>
      <path id="Caminho_14731" data-name="Caminho 14731" d="M67.854,29.314H66.27v-10.8H62.832V17h8.462v1.513h-3.44Z" transform="translate(-39.271 -16.725)" fill="#fff" stroke="#fff" stroke-miterlimit="10" stroke-width="0.2"/>
      <path id="Caminho_14732" data-name="Caminho 14732" d="M69.938,29.314V17h1.58V29.314Z" transform="translate(-31.793 -16.725)" fill="#fff" stroke="#fff" stroke-miterlimit="10" stroke-width="0.2"/>
      <path id="Caminho_14733" data-name="Caminho 14733" d="M76.7,29.314H75.121v-10.8h-3.44V17h8.462v1.513H76.7Z" transform="translate(-29.959 -16.725)" fill="#fff" stroke="#fff" stroke-miterlimit="10" stroke-width="0.2"/>
      <path id="Caminho_14734" data-name="Caminho 14734" d="M89.168,27.864a6.394,6.394,0,0,1-9.028,0A6.3,6.3,0,0,1,78.326,23.3a6.3,6.3,0,0,1,1.814-4.566,6.374,6.374,0,0,1,9.02.008A6.3,6.3,0,0,1,90.983,23.3,6.305,6.305,0,0,1,89.168,27.864Zm-7.86-1.032a4.737,4.737,0,0,0,6.691,0A4.819,4.819,0,0,0,89.368,23.3,4.819,4.819,0,0,0,88,19.764a4.737,4.737,0,0,0-6.691,0A4.826,4.826,0,0,0,79.941,23.3,4.826,4.826,0,0,0,81.308,26.832Z" transform="translate(-22.966 -16.866)" fill="#fff" stroke="#fff" stroke-miterlimit="10" stroke-width="0.2"/>
      <path id="Caminho_14735" data-name="Caminho 14735" d="M85.575,29.314V17H87.5l5.985,9.578h.068l-.068-2.372V17h1.582V29.314h-1.65L87.157,19.27H87.09l.068,2.375v7.67Z" transform="translate(-15.338 -16.725)" fill="#fff" stroke="#fff" stroke-miterlimit="10" stroke-width="0.2"/>
    </g>
    <path id="Caminho_14736" data-name="Caminho 14736" d="M106.648,36.7a8.729,8.729,0,1,0,8.761,8.729A8.6,8.6,0,0,0,106.648,36.7Zm0,14.017a5.05,5.05,0,0,1-4.928-5.289,4.939,4.939,0,1,1,9.853,0A5.048,5.048,0,0,1,106.648,50.721ZM87.535,36.7A8.729,8.729,0,1,0,96.3,45.432,8.6,8.6,0,0,0,87.535,36.7Zm0,14.017a5.05,5.05,0,0,1-4.928-5.289,4.939,4.939,0,1,1,9.853,0A5.049,5.049,0,0,1,87.535,50.721ZM64.8,39.382v3.7h8.86a7.728,7.728,0,0,1-2.015,4.661A9.072,9.072,0,0,1,64.8,50.456a9.853,9.853,0,0,1,0-19.7A9.44,9.44,0,0,1,71.475,33.4l2.613-2.613A12.92,12.92,0,0,0,64.8,27.047a13.558,13.558,0,1,0,0,27.113,12.388,12.388,0,0,0,9.455-3.8,12.236,12.236,0,0,0,3.208-8.663,11.964,11.964,0,0,0-.2-2.313Zm92.987,2.875c-.727-1.95-2.943-5.554-7.473-5.554-4.5,0-8.232,3.536-8.232,8.729a8.542,8.542,0,0,0,8.663,8.729,8.681,8.681,0,0,0,7.273-3.869l-2.976-1.985a4.986,4.986,0,0,1-4.3,2.414,4.443,4.443,0,0,1-4.234-2.643l11.672-4.829Zm-11.9,2.91a4.789,4.789,0,0,1,4.562-5.092,3.377,3.377,0,0,1,3.241,1.851Zm-9.488,8.464h3.834V27.973h-3.834Zm-6.284-14.978h-.131a6.05,6.05,0,0,0-4.6-1.95,8.736,8.736,0,0,0,0,17.457,5.947,5.947,0,0,0,4.6-1.985h.131v1.258c0,3.339-1.783,5.125-4.661,5.125a4.831,4.831,0,0,1-4.4-3.109l-3.339,1.389A8.318,8.318,0,0,0,125.447,62c4.5,0,8.3-2.645,8.3-9.092V37.231h-3.639Zm-4.4,12.068a5.008,5.008,0,0,1-4.86-5.256,5.049,5.049,0,0,1,4.86-5.324c2.613,0,4.661,2.249,4.661,5.324C130.373,48.506,128.325,50.721,125.712,50.721ZM175.75,27.975h-9.176V53.631H170.4v-9.72h5.348c4.244,0,8.417-3.074,8.417-7.969S179.994,27.975,175.75,27.975Zm.1,12.365H170.4V31.546h5.447a4.4,4.4,0,1,1,0,8.794Zm23.668-3.684c-2.773,0-5.646,1.221-6.834,3.926l3.4,1.42a3.628,3.628,0,0,1,3.5-1.882c1.981,0,3.994,1.188,4.027,3.3v.263a8.471,8.471,0,0,0-3.994-.989c-3.663,0-7.395,2.013-7.395,5.775,0,3.434,3,5.646,6.37,5.646a5.4,5.4,0,0,0,4.887-2.51h.131v1.98h3.7V43.751C207.3,39.2,203.906,36.656,199.516,36.656Zm-.462,14.061c-1.256,0-3-.626-3-2.178,0-1.981,2.178-2.74,4.06-2.74a6.832,6.832,0,0,1,3.5.858A4.642,4.642,0,0,1,199.054,50.717Zm21.718-13.5-4.39,11.124h-.131l-4.556-11.124h-4.125L214.4,52.763l-3.9,8.649H214.5l10.531-24.195ZM186.278,53.631h3.83V27.975h-3.83Z" transform="translate(43.19 17.939)" fill="#fff"/>
    <g id="Grupo_12014" data-name="Grupo 12014" transform="translate(30.468 24.655)">
      <path id="Caminho_14737" data-name="Caminho 14737" d="M20.921,17.615a4.119,4.119,0,0,0-.948,2.884V65.888a4.115,4.115,0,0,0,.948,2.884l.152.148L46.5,43.493v-.6L21.073,17.465Z" transform="translate(-19.973 -16.799)" fill="url(#linear-gradient)"/>
      <path id="Caminho_14738" data-name="Caminho 14738" d="M41.374,43.282,32.9,34.8v-.6l8.478-8.478.191.111L51.609,31.54c2.867,1.63,2.867,4.3,0,5.925L41.567,43.171Z" transform="translate(-6.372 -8.108)" fill="url(#linear-gradient-2)"/>
      <path id="Caminho_14739" data-name="Caminho 14739" d="M54.682,38.67,46.013,30,20.435,55.579c.946,1,2.508,1.125,4.267.125L54.682,38.67" transform="translate(-19.487 -3.607)" fill="url(#linear-gradient-3)"/>
      <path id="Caminho_14740" data-name="Caminho 14740" d="M54.682,34.866,24.7,17.831c-1.759-1-3.321-.876-4.267.125L46.013,43.535Z" transform="translate(-19.487 -17.14)" fill="url(#linear-gradient-4)"/>
      <g id="Grupo_12013" data-name="Grupo 12013" transform="translate(0 34.872)">
        <path id="Caminho_14741" data-name="Caminho 14741" d="M54.491,34.132,24.7,51.058c-1.666.948-3.156.885-4.113.023h0l-.154.152h0l.152.15,0,0c.956.862,2.446.926,4.113-.023l29.98-17.034Z" transform="translate(-19.487 -34.132)" opacity="0.2" style="isolation: isolate"/>
        <path id="Caminho_14742" data-name="Caminho 14742" d="M20.921,43.8a4.115,4.115,0,0,1-.948-2.884v.3a4.11,4.11,0,0,0,.948,2.881l.154-.152Z" transform="translate(-19.973 -26.996)" opacity="0.12" style="isolation: isolate"/>
      </g>
      <path id="Caminho_14743" data-name="Caminho 14743" d="M47.262,32.665,37.029,38.479l.191.191,10.042-5.705A3.6,3.6,0,0,0,49.413,30h0A3.819,3.819,0,0,1,47.262,32.665Z" transform="translate(-2.024 -3.607)" opacity="0.12" style="isolation: isolate"/>
      <path id="Caminho_14744" data-name="Caminho 14744" d="M25.188,18.131l40.023,22.74a3.819,3.819,0,0,1,2.151,2.664h0a3.6,3.6,0,0,0-2.151-2.964L25.188,17.831c-2.869-1.63-5.215-.275-5.215,3.009v.3C19.973,17.856,22.319,16.5,25.188,18.131Z" transform="translate(-19.973 -17.14)" fill="#fff" opacity="0.25" style="isolation: isolate"/>
    </g>
  </g>
</svg>
